<?xml version="1.0" encoding="iso-8859-1"?>
<!-- Uploaded to: SVG Repo, www.svgrepo.com, Generator: SVG Repo Mixer Tools -->
<svg height="800px" width="800px" version="1.1" id="Layer_1" xmlns="http://www.w3.org/2000/svg" xmlns:xlink="http://www.w3.org/1999/xlink" 
	 viewBox="0 0 512 512" xml:space="preserve">
<path style="fill:#8A6746;" d="M438.049,46.625c16.303-5.922,33.74-11.39,52.397-16.267L482.51,0
	c-60.653,15.854-114.548,38.999-160.19,68.79c-36.786,24.011-68.319,52.364-93.725,84.274
	c-43.73,54.926-54.199,101.423-54.624,103.375l30.663,6.663c0.088-0.407,9.289-41.233,48.509-90.495
	c26.773-33.627,71.685-75.71,144.037-109.18c-15.461,49.915-6.249,94.495-5.751,96.815l30.675-6.6
	C421.982,153.072,410.526,97.677,438.049,46.625z"/>
<path style="fill:#00AD94;" d="M282.87,378.036c0,34.631-9.026,67.39-25.395,92.262C239.767,497.19,215.554,512,189.3,512
	s-50.456-14.81-68.164-41.702c-16.379-24.872-25.395-57.631-25.395-92.262c0-34.621,9.016-67.379,25.395-92.252
	c17.708-26.891,41.911-41.702,68.164-41.702s50.467,14.811,68.174,41.702C273.844,310.657,282.87,343.415,282.87,378.036z"/>
<path style="fill:#FFDBA8;" d="M231.243,470.058c0,23.168-18.775,41.942-41.942,41.942c-23.157,0-41.942-18.775-41.942-41.942
	c0-23.168,18.785-41.942,41.942-41.942C212.468,428.116,231.243,446.89,231.243,470.058z"/>
<path style="fill:#00AD94;" d="M379.661,46.41L363.68,63.867c-24.119,26.347-56.47,46.084-96.132,58.656
	c-31.012,9.842-66.585,15.344-105.713,16.348c-4.539,0.126-9.026,0.178-13.43,0.178c-59.66,0-105.828-10.041-107.899-10.501
	l-30.437-6.725l23.534-20.438c33.219-28.847,70.936-50.121,112.125-63.227c32.853-10.449,67.923-15.783,104.228-15.71
	c61.731,0.052,105.577,15.386,107.418,16.034L379.661,46.41z"/>
<g>
	<path style="fill:#008878;" d="M379.661,46.41L363.68,63.867c-24.119,26.347-56.47,46.084-96.132,58.656
		c-31.012,9.842-66.585,15.344-105.713,16.348c-4.539,0.126-9.026,0.178-13.43,0.178c-59.66,0-105.828-10.041-107.899-10.501
		l-30.437-6.725L379.661,46.41z"/>
	<path style="fill:#008878;" d="M257.475,285.784c16.369,24.872,25.395,57.631,25.395,92.252c0,34.631-9.026,67.39-25.395,92.262
		C239.767,497.19,215.554,512,189.3,512V244.083C215.554,244.083,239.767,258.893,257.475,285.784z"/>
</g>
<path style="fill:#FFC473;" d="M231.243,470.058c0,23.168-18.775,41.942-41.942,41.942v-83.884
	C212.468,428.116,231.243,446.89,231.243,470.058z"/>
<path style="fill:#00AD94;" d="M501.932,276.334c0,34.631-9.026,67.39-25.395,92.262c-17.708,26.891-41.921,41.702-68.174,41.702
	c-26.253,0-50.456-14.811-68.164-41.702c-16.379-24.872-25.395-57.631-25.395-92.262c0-34.621,9.016-67.379,25.395-92.252
	c17.708-26.891,41.911-41.702,68.164-41.702s50.467,14.811,68.174,41.702C492.905,208.955,501.932,241.714,501.932,276.334z"/>
<path style="fill:#FFDBA8;" d="M450.303,368.356c0,23.168-18.775,41.942-41.942,41.942c-23.157,0-41.942-18.775-41.942-41.942
	c0-23.168,18.785-41.942,41.942-41.942C431.53,326.414,450.303,345.188,450.303,368.356z"/>
<path style="fill:#008878;" d="M476.536,184.082c16.369,24.872,25.395,57.631,25.395,92.252c0,34.631-9.026,67.39-25.395,92.262
	c-17.708,26.891-41.921,41.702-68.174,41.702V142.381C434.615,142.381,458.829,157.191,476.536,184.082z"/>
<path style="fill:#FFC473;" d="M450.303,368.356c0,23.168-18.775,41.942-41.942,41.942v-83.884
	C431.53,326.414,450.303,345.188,450.303,368.356z"/>
</svg>