<?xml version="1.0" encoding="iso-8859-1"?>
<!-- Uploaded to: SVG Repo, www.svgrepo.com, Generator: SVG Repo Mixer Tools -->
<svg version="1.1" id="Layer_1" xmlns="http://www.w3.org/2000/svg" xmlns:xlink="http://www.w3.org/1999/xlink" 
	 viewBox="0 0 512.001 512.001" xml:space="preserve">
<path style="fill:#E0A03D;" d="M479.74,270.414C467.379,157.775,371.931,70.135,256.001,70.135S44.622,157.775,32.26,270.414
	c-13.634,0.099-24.657,11.174-24.657,24.831c0,13.719,11.12,24.839,24.84,24.839c13.719,0,24.84-11.12,24.84-24.839
	c0,13.719,11.12,24.839,24.839,24.839s24.839-11.12,24.839-24.839c0,13.719,11.121,24.839,24.839,24.839
	c13.72,0,24.841-11.12,24.841-24.839c0,13.719,11.12,24.839,24.839,24.839s24.839-11.12,24.839-24.839
	c0,13.719,11.121,24.839,24.84,24.839c13.72,0,24.84-11.12,24.84-24.839c0,13.719,11.12,24.839,24.839,24.839
	s24.84-11.12,24.84-24.839c0,13.719,11.12,24.839,24.838,24.839c13.72,0,24.84-11.12,24.84-24.839
	c0,13.719,11.121,24.839,24.84,24.839s24.84-11.12,24.84-24.839c0,13.719,11.12,24.839,24.839,24.839s24.839-11.12,24.839-24.839
	c0,13.719,11.121,24.839,24.84,24.839c13.72,0,24.84-11.12,24.84-24.839C504.397,281.588,493.375,270.513,479.74,270.414z"/>
<path style="fill:#63A2AE;" d="M174.881,441.864h257.022l25.771-134.862c-0.096-0.178-0.172-0.368-0.264-0.548h-5.387
	c-4.099,8.082-12.465,13.632-22.146,13.632c-9.681,0-18.048-5.551-22.146-13.632h-5.387c-4.099,8.082-12.465,13.632-22.146,13.632
	s-18.048-5.551-22.146-13.632h-5.387c-4.099,8.082-12.465,13.632-22.146,13.632c-9.681,0-18.047-5.551-22.145-13.632h-5.386
	c-4.099,8.082-12.465,13.632-22.146,13.632c-9.681,0-18.048-5.551-22.146-13.632h-5.386c-4.098,8.082-12.465,13.632-22.146,13.632
	c-9.682,0-18.048-5.551-22.146-13.632h-5.387c-4.099,8.082-12.465,13.632-22.146,13.632s-18.048-5.551-22.146-13.632h-5.387
	c-4.098,8.082-12.465,13.632-22.146,13.632c-9.681,0-18.048-5.551-22.145-13.632h-5.387c-4.099,8.082-12.465,13.632-22.146,13.632
	s-18.048-5.551-22.146-13.632h-5.386c-0.091,0.18-0.168,0.37-0.264,0.548l25.771,134.862h74.509"/>
<g>
	<path style="fill:#491E17;" d="M486.56,263.575c-7.396-54.293-33.792-104.232-74.758-141.185
		c-42.792-38.599-98.123-59.858-155.801-59.858s-113.01,21.257-155.802,59.857c-40.966,36.953-67.363,86.892-74.758,141.185
		C10.92,266.796,0,279.808,0,295.244c0,17.889,14.554,32.442,32.443,32.442c6.295,0,12.174-1.806,17.153-4.92l24.211,126.7h80.795
		V434.26H86.385L65.101,322.88c0.989,0.611,2.019,1.151,3.071,1.651c0.017,0.008,0.034,0.016,0.052,0.024
		c0.493,0.233,0.991,0.455,1.496,0.664c0.09,0.038,0.182,0.072,0.273,0.109c0.484,0.195,0.968,0.384,1.462,0.556
		c0.016,0.005,0.032,0.01,0.048,0.015c0.851,0.294,1.716,0.546,2.594,0.769c0.316,0.081,0.631,0.164,0.95,0.235
		c0.305,0.068,0.614,0.126,0.923,0.185c0.384,0.074,0.77,0.143,1.16,0.204c0.28,0.044,0.56,0.084,0.841,0.12
		c0.45,0.058,0.904,0.103,1.36,0.142c0.232,0.02,0.464,0.045,0.697,0.06c0.693,0.045,1.392,0.073,2.096,0.073
		c0.617,0,1.232-0.018,1.843-0.052c0.111-0.006,0.219-0.02,0.329-0.027c0.503-0.033,1.004-0.072,1.501-0.128
		c0.048-0.005,0.094-0.014,0.143-0.02c8.263-0.966,15.745-5.041,21.023-11.359c5.276,6.316,12.755,10.389,21.015,11.358
		c0.051,0.006,0.1,0.015,0.15,0.02c0.496,0.056,0.995,0.094,1.495,0.128c0.113,0.007,0.223,0.021,0.336,0.027
		c0.611,0.034,1.225,0.052,1.842,0.052s1.232-0.018,1.843-0.052c0.112-0.006,0.221-0.02,0.334-0.027
		c0.501-0.033,1.002-0.071,1.497-0.128c0.05-0.005,0.099-0.015,0.148-0.02c8.261-0.967,15.742-5.042,21.018-11.358
		c5.278,6.318,12.76,10.392,21.023,11.359c0.048,0.006,0.094,0.014,0.143,0.02c0.498,0.056,0.999,0.094,1.501,0.128
		c0.111,0.007,0.219,0.021,0.329,0.027c0.611,0.034,1.225,0.052,1.843,0.052c0.617,0,1.232-0.018,1.843-0.052
		c0.112-0.006,0.221-0.02,0.333-0.027c0.502-0.033,1.002-0.071,1.498-0.128c0.05-0.005,0.098-0.015,0.148-0.02
		c8.261-0.967,15.741-5.042,21.018-11.358c5.275,6.315,12.752,10.387,21.009,11.357c0.053,0.006,0.104,0.016,0.157,0.021
		c0.494,0.056,0.993,0.093,1.491,0.127c0.114,0.008,0.225,0.022,0.34,0.028c0.611,0.034,1.226,0.052,1.842,0.052
		c0.617,0,1.232-0.018,1.843-0.052c0.112-0.006,0.221-0.02,0.334-0.027c0.501-0.033,1.002-0.071,1.497-0.128
		c0.05-0.005,0.099-0.015,0.148-0.02c8.261-0.967,15.742-5.042,21.018-11.358c5.278,6.318,12.759,10.392,21.023,11.359
		c0.048,0.006,0.094,0.014,0.143,0.02c0.498,0.056,0.999,0.094,1.501,0.128c0.111,0.007,0.219,0.021,0.329,0.027
		c0.611,0.034,1.226,0.052,1.843,0.052c0.617,0,1.232-0.018,1.843-0.052c0.114-0.006,0.225-0.02,0.339-0.028
		c0.5-0.033,0.998-0.071,1.491-0.127c0.053-0.006,0.104-0.015,0.157-0.021c8.258-0.969,15.735-5.043,21.01-11.357
		c5.275,6.315,12.753,10.388,21.012,11.358c0.052,0.006,0.102,0.015,0.154,0.021c0.495,0.056,0.994,0.094,1.494,0.128
		c0.113,0.007,0.223,0.021,0.337,0.027c0.611,0.034,1.225,0.052,1.842,0.052c0.617,0,1.232-0.018,1.843-0.052
		c0.112-0.006,0.221-0.02,0.334-0.027c0.502-0.033,1.002-0.071,1.497-0.128c0.05-0.005,0.099-0.015,0.148-0.02
		c8.261-0.967,15.742-5.042,21.018-11.358c5.277,6.316,12.757,10.39,21.018,11.358c0.05,0.006,0.098,0.015,0.148,0.02
		c0.496,0.056,0.996,0.094,1.497,0.128c0.112,0.007,0.221,0.021,0.334,0.027c0.611,0.034,1.226,0.052,1.843,0.052
		c0.617,0,1.232-0.018,1.843-0.052c0.114-0.006,0.225-0.02,0.339-0.028c0.5-0.033,0.998-0.071,1.491-0.127
		c0.053-0.006,0.104-0.015,0.157-0.021c8.258-0.969,15.735-5.043,21.01-11.357c5.278,6.318,12.759,10.392,21.023,11.359
		c0.048,0.006,0.094,0.014,0.143,0.02c0.498,0.056,0.999,0.094,1.501,0.128c0.111,0.007,0.219,0.021,0.329,0.027
		c0.611,0.034,1.226,0.052,1.843,0.052c0.705,0,1.402-0.028,2.095-0.073c0.233-0.015,0.465-0.04,0.697-0.06
		c0.456-0.04,0.909-0.084,1.359-0.142c0.282-0.036,0.562-0.077,0.841-0.12c0.389-0.061,0.775-0.129,1.159-0.204
		c0.308-0.059,0.617-0.117,0.923-0.185c0.319-0.072,0.635-0.155,0.95-0.235c0.878-0.223,1.744-0.475,2.594-0.769
		c0.015-0.005,0.031-0.01,0.048-0.015c0.494-0.171,0.978-0.361,1.462-0.556c0.09-0.038,0.182-0.072,0.273-0.109
		c0.505-0.209,1.003-0.431,1.496-0.664c0.017-0.008,0.034-0.017,0.052-0.024c1.051-0.501,2.081-1.041,3.071-1.651l-15.472,80.965
		H309.732v15.207h118.79l-2.907,15.208H174.881v15.207h263.311l24.211-126.7c4.98,3.115,10.859,4.92,17.154,4.92
		c17.889,0,32.444-14.554,32.444-32.442C512,279.808,501.08,266.796,486.56,263.575z M479.557,312.48
		c-6.577,0-12.301-3.706-15.207-9.137c-0.052-0.109-0.102-0.22-0.157-0.328l-0.018-0.035c-1.177-2.33-1.855-4.951-1.855-7.734
		h-15.207c0,2.796-0.684,5.431-1.871,7.77c-0.168,0.332-0.349,0.654-0.535,0.97c-0.049,0.084-0.1,0.166-0.151,0.248
		c-0.265,0.434-0.549,0.85-0.848,1.254c-0.143,0.193-0.28,0.389-0.431,0.576c-0.126,0.157-0.262,0.305-0.393,0.458
		c-0.21,0.241-0.423,0.481-0.645,0.71c-0.108,0.113-0.217,0.223-0.328,0.333c-0.724,0.708-1.508,1.356-2.347,1.929
		c-0.046,0.031-0.093,0.062-0.14,0.092c-0.425,0.284-0.862,0.553-1.313,0.799c-0.012,0.006-0.023,0.014-0.035,0.02
		c-0.475,0.258-0.964,0.494-1.465,0.707c-0.034,0.014-0.07,0.027-0.104,0.042c-0.444,0.187-0.898,0.351-1.359,0.499
		c-0.083,0.026-0.166,0.055-0.25,0.08c-0.498,0.152-1.004,0.285-1.52,0.391c-0.046,0.009-0.092,0.015-0.138,0.024
		c-0.457,0.09-0.922,0.159-1.391,0.213c-0.132,0.015-0.265,0.029-0.398,0.042c-0.518,0.047-1.04,0.08-1.571,0.08
		c-0.53,0-1.053-0.032-1.572-0.08c-0.132-0.012-0.264-0.026-0.395-0.042c-0.47-0.054-0.937-0.123-1.396-0.213
		c-0.045-0.009-0.09-0.014-0.134-0.023c-0.517-0.106-1.023-0.24-1.522-0.392c-0.082-0.025-0.164-0.053-0.246-0.079
		c-0.464-0.149-0.921-0.315-1.367-0.502c-0.032-0.013-0.066-0.025-0.098-0.04c-0.502-0.214-0.993-0.45-1.47-0.71
		c-0.009-0.005-0.017-0.01-0.026-0.015c-0.455-0.248-0.895-0.519-1.325-0.805c-0.043-0.029-0.086-0.057-0.13-0.086
		c-0.842-0.574-1.627-1.225-2.354-1.935c-0.108-0.106-0.216-0.215-0.32-0.325c-0.226-0.232-0.442-0.474-0.655-0.72
		c-0.129-0.15-0.263-0.295-0.387-0.45c-0.188-0.232-0.361-0.477-0.537-0.718c-0.26-0.36-0.508-0.73-0.742-1.112
		c-0.051-0.083-0.102-0.166-0.152-0.25c-0.187-0.317-0.367-0.64-0.535-0.971l-0.002-0.004c-1.185-2.337-1.869-4.97-1.869-7.765
		h-15.207c0,2.791-0.681,5.421-1.864,7.755l-0.007,0.014c-0.169,0.335-0.351,0.659-0.539,0.978c-0.046,0.077-0.093,0.154-0.14,0.23
		c-0.314,0.515-0.656,1.007-1.017,1.48c-0.09,0.118-0.173,0.241-0.267,0.357c-0.129,0.16-0.268,0.311-0.401,0.466
		c-0.208,0.238-0.418,0.473-0.637,0.701c-0.111,0.114-0.221,0.227-0.335,0.338c-0.723,0.707-1.504,1.353-2.343,1.925
		c-0.048,0.032-0.095,0.064-0.144,0.095c-0.424,0.283-0.859,0.549-1.307,0.795c-0.014,0.007-0.027,0.015-0.041,0.022
		c-0.474,0.258-0.963,0.493-1.463,0.706c-0.035,0.015-0.072,0.028-0.108,0.043c-0.443,0.186-0.896,0.349-1.356,0.498
		c-0.084,0.027-0.168,0.056-0.252,0.081c-0.498,0.152-1.003,0.285-1.518,0.391c-0.046,0.009-0.093,0.015-0.14,0.024
		c-0.456,0.09-0.921,0.159-1.39,0.213c-0.133,0.015-0.266,0.029-0.399,0.042c-0.518,0.047-1.041,0.08-1.571,0.08
		c-0.53,0-1.053-0.032-1.572-0.08c-0.132-0.012-0.265-0.026-0.396-0.042c-0.47-0.054-0.936-0.123-1.394-0.213
		c-0.045-0.009-0.091-0.014-0.136-0.023c-0.516-0.106-1.022-0.239-1.52-0.391c-0.084-0.025-0.166-0.054-0.249-0.08
		c-0.462-0.149-0.917-0.313-1.362-0.499c-0.034-0.014-0.069-0.026-0.103-0.042c-0.502-0.214-0.99-0.449-1.466-0.708
		c-0.011-0.006-0.022-0.013-0.033-0.019c-0.451-0.247-0.889-0.516-1.316-0.8c-0.046-0.03-0.091-0.06-0.137-0.091
		c-0.839-0.572-1.622-1.221-2.346-1.928c-0.111-0.109-0.221-0.222-0.33-0.335c-0.221-0.228-0.433-0.465-0.642-0.705
		c-0.133-0.154-0.27-0.303-0.397-0.463c-0.103-0.127-0.196-0.264-0.295-0.393c-0.351-0.463-0.684-0.944-0.991-1.447
		c-0.046-0.076-0.093-0.151-0.138-0.227c-0.189-0.32-0.37-0.646-0.54-0.98l-0.012-0.024c-1.18-2.332-1.859-4.957-1.859-7.744H347.75
		c0,2.795-0.683,5.428-1.869,7.765l-0.002,0.004c-0.168,0.332-0.349,0.654-0.535,0.971c-0.05,0.084-0.101,0.167-0.152,0.25
		c-0.231,0.377-0.475,0.742-0.732,1.097c-0.179,0.247-0.357,0.497-0.548,0.734c-0.124,0.154-0.257,0.299-0.385,0.448
		c-0.213,0.246-0.43,0.489-0.656,0.722c-0.105,0.109-0.211,0.218-0.319,0.323c-0.727,0.711-1.513,1.362-2.355,1.936
		c-0.043,0.028-0.085,0.057-0.128,0.084c-0.43,0.288-0.871,0.559-1.327,0.807c-0.008,0.004-0.017,0.01-0.025,0.014
		c-0.476,0.259-0.968,0.496-1.47,0.71c-0.032,0.013-0.065,0.025-0.097,0.04c-0.447,0.187-0.904,0.352-1.369,0.502
		c-0.082,0.026-0.163,0.054-0.245,0.079c-0.499,0.152-1.006,0.285-1.522,0.392c-0.044,0.009-0.089,0.015-0.134,0.023
		c-0.458,0.091-0.925,0.16-1.395,0.213c-0.132,0.015-0.264,0.029-0.396,0.042c-0.519,0.047-1.042,0.08-1.572,0.08
		s-1.053-0.032-1.571-0.08c-0.133-0.012-0.266-0.026-0.398-0.042c-0.468-0.054-0.934-0.123-1.391-0.213
		c-0.046-0.009-0.092-0.015-0.139-0.024c-0.515-0.106-1.021-0.239-1.519-0.391c-0.084-0.025-0.167-0.054-0.251-0.08
		c-0.461-0.149-0.915-0.313-1.358-0.499c-0.035-0.014-0.071-0.027-0.105-0.043c-0.501-0.214-0.989-0.449-1.464-0.707
		c-0.013-0.006-0.024-0.014-0.037-0.021c-0.45-0.246-0.887-0.514-1.312-0.798c-0.046-0.031-0.093-0.062-0.139-0.092
		c-0.839-0.573-1.622-1.221-2.346-1.928c-0.112-0.109-0.221-0.221-0.329-0.334c-0.222-0.229-0.434-0.466-0.643-0.708
		c-0.132-0.153-0.269-0.301-0.395-0.459c-0.145-0.179-0.277-0.37-0.416-0.556c-0.303-0.411-0.594-0.833-0.864-1.274
		c-0.051-0.082-0.102-0.164-0.151-0.248c-0.187-0.317-0.367-0.639-0.535-0.97c-1.187-2.338-1.871-4.973-1.871-7.77h-15.207
		c0,2.785-0.679,5.409-1.857,7.739l-0.015,0.029c-0.17,0.337-0.353,0.663-0.542,0.984c-0.043,0.072-0.087,0.144-0.131,0.215
		c-0.364,0.597-0.76,1.168-1.186,1.709c-0.035,0.044-0.066,0.091-0.101,0.135c-0.131,0.163-0.272,0.317-0.409,0.475
		c-0.204,0.235-0.412,0.467-0.629,0.691c-0.112,0.117-0.224,0.231-0.339,0.344c-0.723,0.705-1.502,1.35-2.339,1.921
		c-0.049,0.033-0.098,0.065-0.148,0.097c-0.423,0.282-0.856,0.547-1.303,0.793c-0.015,0.008-0.028,0.017-0.044,0.025
		c-0.474,0.258-0.962,0.492-1.461,0.705c-0.036,0.016-0.073,0.028-0.109,0.044c-0.442,0.185-0.895,0.349-1.354,0.497
		c-0.084,0.026-0.168,0.056-0.253,0.082c-0.497,0.151-1.003,0.284-1.518,0.391c-0.046,0.009-0.093,0.015-0.14,0.024
		c-0.457,0.09-0.922,0.159-1.39,0.213c-0.133,0.015-0.266,0.029-0.398,0.042c-0.518,0.047-1.041,0.08-1.571,0.08
		s-1.054-0.032-1.572-0.08c-0.132-0.012-0.264-0.026-0.395-0.042c-0.47-0.054-0.937-0.123-1.395-0.213
		c-0.045-0.009-0.09-0.014-0.135-0.023c-0.516-0.106-1.023-0.24-1.522-0.392c-0.082-0.025-0.164-0.053-0.246-0.079
		c-0.463-0.149-0.921-0.315-1.367-0.502c-0.032-0.013-0.066-0.025-0.098-0.04c-0.502-0.214-0.992-0.45-1.47-0.71
		c-0.009-0.005-0.018-0.01-0.026-0.015c-0.455-0.248-0.896-0.519-1.325-0.805c-0.044-0.029-0.087-0.057-0.13-0.086
		c-0.842-0.574-1.627-1.225-2.354-1.935c-0.108-0.106-0.215-0.215-0.321-0.325c-0.226-0.232-0.442-0.474-0.654-0.72
		c-0.13-0.15-0.263-0.295-0.386-0.45c-0.189-0.232-0.361-0.477-0.537-0.718c-0.26-0.36-0.508-0.73-0.742-1.112
		c-0.051-0.083-0.101-0.166-0.152-0.25c-0.187-0.317-0.367-0.64-0.535-0.971l-0.002-0.004c-1.186-2.337-1.869-4.97-1.869-7.765
		h-15.207c0,2.795-0.683,5.428-1.869,7.765l-0.002,0.004c-0.168,0.332-0.349,0.654-0.535,0.971c-0.05,0.084-0.101,0.167-0.152,0.25
		c-0.231,0.377-0.475,0.742-0.732,1.097c-0.179,0.247-0.357,0.497-0.548,0.734c-0.124,0.154-0.256,0.299-0.385,0.448
		c-0.213,0.246-0.43,0.489-0.656,0.722c-0.105,0.109-0.212,0.218-0.319,0.323c-0.727,0.711-1.513,1.362-2.355,1.936
		c-0.043,0.028-0.085,0.057-0.128,0.084c-0.43,0.288-0.871,0.559-1.327,0.807c-0.008,0.004-0.017,0.01-0.025,0.014
		c-0.476,0.259-0.968,0.496-1.47,0.71c-0.032,0.013-0.065,0.025-0.097,0.04c-0.446,0.187-0.904,0.352-1.369,0.502
		c-0.082,0.026-0.163,0.054-0.245,0.079c-0.499,0.152-1.006,0.285-1.522,0.392c-0.044,0.009-0.089,0.015-0.134,0.023
		c-0.458,0.091-0.925,0.16-1.396,0.213c-0.131,0.015-0.263,0.029-0.395,0.042c-0.519,0.047-1.042,0.08-1.572,0.08
		s-1.052-0.032-1.571-0.08c-0.134-0.012-0.267-0.026-0.398-0.042c-0.468-0.054-0.932-0.123-1.388-0.213
		c-0.047-0.009-0.094-0.015-0.142-0.024c-0.515-0.106-1.019-0.239-1.517-0.391c-0.085-0.025-0.17-0.055-0.255-0.082
		c-0.458-0.148-0.909-0.311-1.35-0.496c-0.039-0.015-0.076-0.029-0.114-0.046c-0.499-0.212-0.985-0.447-1.459-0.704
		c-0.016-0.009-0.032-0.018-0.049-0.027c-0.445-0.243-0.876-0.508-1.296-0.788c-0.051-0.034-0.102-0.067-0.153-0.102
		c-0.834-0.57-1.613-1.215-2.334-1.918c-0.117-0.115-0.231-0.231-0.345-0.349c-0.214-0.221-0.419-0.451-0.621-0.684
		c-0.138-0.16-0.281-0.315-0.414-0.481c-0.001,0-0.001-0.001-0.001-0.002c-0.465-0.581-0.893-1.198-1.288-1.844
		c-0.042-0.069-0.085-0.139-0.127-0.209c-0.191-0.321-0.373-0.65-0.544-0.987l-0.017-0.033c-1.177-2.33-1.855-4.951-1.855-7.734
		h-15.207c0,2.796-0.684,5.431-1.871,7.77c-0.168,0.332-0.349,0.654-0.535,0.97c-0.049,0.084-0.1,0.166-0.151,0.248
		c-0.265,0.434-0.549,0.85-0.848,1.254c-0.143,0.193-0.28,0.389-0.431,0.576c-0.126,0.157-0.262,0.305-0.393,0.458
		c-0.209,0.241-0.423,0.481-0.645,0.71c-0.108,0.113-0.217,0.223-0.328,0.333c-0.724,0.708-1.508,1.356-2.346,1.929
		c-0.046,0.031-0.093,0.062-0.14,0.092c-0.425,0.284-0.862,0.553-1.313,0.799c-0.012,0.006-0.023,0.014-0.035,0.02
		c-0.475,0.258-0.964,0.494-1.465,0.707c-0.034,0.014-0.07,0.027-0.104,0.042c-0.444,0.187-0.898,0.351-1.359,0.499
		c-0.083,0.026-0.166,0.055-0.25,0.08c-0.498,0.152-1.004,0.285-1.519,0.391c-0.046,0.009-0.092,0.015-0.138,0.024
		c-0.457,0.09-0.922,0.159-1.391,0.213c-0.132,0.015-0.265,0.029-0.398,0.042c-0.518,0.047-1.04,0.08-1.571,0.08
		c-0.53,0-1.054-0.032-1.572-0.08c-0.132-0.012-0.264-0.026-0.395-0.042c-0.47-0.054-0.937-0.123-1.395-0.213
		c-0.045-0.009-0.09-0.014-0.134-0.023c-0.517-0.106-1.023-0.24-1.522-0.392c-0.082-0.025-0.164-0.053-0.246-0.079
		c-0.464-0.149-0.921-0.315-1.367-0.502c-0.032-0.013-0.066-0.025-0.098-0.04c-0.502-0.214-0.994-0.45-1.47-0.71
		c-0.009-0.005-0.017-0.01-0.026-0.015c-0.455-0.248-0.895-0.519-1.325-0.805c-0.043-0.029-0.086-0.057-0.13-0.086
		c-0.841-0.574-1.627-1.225-2.354-1.935c-0.108-0.106-0.215-0.215-0.32-0.325c-0.226-0.232-0.442-0.474-0.654-0.72
		c-0.129-0.15-0.263-0.295-0.387-0.45c-0.188-0.232-0.361-0.476-0.537-0.718c-0.26-0.36-0.508-0.73-0.742-1.112
		c-0.051-0.083-0.102-0.166-0.152-0.25c-0.187-0.317-0.367-0.64-0.535-0.971l-0.002-0.004c-1.185-2.337-1.869-4.97-1.869-7.765
		h-15.207c0,2.789-0.68,5.416-1.862,7.749l-0.01,0.02c-0.169,0.334-0.351,0.658-0.538,0.977c-0.047,0.079-0.095,0.157-0.143,0.234
		c-0.278,0.456-0.579,0.892-0.894,1.316c-0.13,0.173-0.253,0.353-0.39,0.521c-0.126,0.157-0.262,0.305-0.392,0.457
		c-0.21,0.242-0.424,0.483-0.648,0.713c-0.106,0.112-0.215,0.221-0.324,0.329c-0.726,0.71-1.511,1.358-2.351,1.932
		c-0.044,0.029-0.088,0.058-0.132,0.087c-0.428,0.286-0.869,0.557-1.323,0.805c-0.009,0.005-0.018,0.01-0.027,0.016
		c-0.476,0.259-0.967,0.495-1.47,0.709c-0.032,0.014-0.066,0.025-0.098,0.04c-0.446,0.187-0.903,0.352-1.367,0.502
		c-0.082,0.026-0.163,0.054-0.246,0.079c-0.499,0.152-1.006,0.285-1.522,0.392c-0.045,0.009-0.09,0.015-0.134,0.023
		c-0.459,0.091-0.926,0.16-1.396,0.213c-0.131,0.015-0.263,0.029-0.395,0.042c-0.519,0.047-1.042,0.08-1.572,0.08
		c-0.53,0-1.053-0.032-1.572-0.08c-0.132-0.012-0.264-0.026-0.395-0.042c-0.47-0.054-0.937-0.123-1.395-0.213
		c-0.045-0.009-0.09-0.014-0.135-0.023c-0.516-0.106-1.022-0.239-1.521-0.392c-0.083-0.025-0.165-0.053-0.248-0.08
		c-0.462-0.149-0.919-0.313-1.365-0.501c-0.033-0.014-0.067-0.025-0.1-0.041c-0.502-0.214-0.991-0.449-1.467-0.708
		c-0.011-0.006-0.021-0.012-0.032-0.018c-0.452-0.247-0.891-0.516-1.318-0.801c-0.045-0.03-0.09-0.06-0.136-0.09
		c-0.839-0.573-1.623-1.222-2.348-1.929c-0.111-0.109-0.22-0.221-0.328-0.334c-0.222-0.229-0.433-0.466-0.642-0.706
		c-0.133-0.154-0.271-0.304-0.398-0.463c-0.096-0.119-0.182-0.246-0.275-0.367c-0.358-0.471-0.697-0.96-1.01-1.472
		c-0.046-0.076-0.093-0.151-0.138-0.227c-0.189-0.32-0.37-0.646-0.54-0.98l-0.012-0.024c-1.179-2.332-1.859-4.957-1.859-7.744
		H99.357c0,2.795-0.683,5.428-1.869,7.765l-0.002,0.004c-0.168,0.332-0.349,0.654-0.535,0.971c-0.05,0.084-0.101,0.167-0.152,0.25
		c-0.234,0.382-0.483,0.752-0.742,1.112c-0.175,0.241-0.35,0.486-0.537,0.718c-0.125,0.155-0.258,0.3-0.387,0.45
		c-0.213,0.245-0.428,0.487-0.655,0.72c-0.105,0.109-0.212,0.219-0.32,0.325c-0.727,0.711-1.512,1.361-2.354,1.935
		c-0.043,0.029-0.086,0.057-0.13,0.086c-0.429,0.287-0.87,0.558-1.325,0.805c-0.009,0.005-0.018,0.01-0.026,0.015
		c-0.476,0.259-0.968,0.495-1.47,0.71c-0.032,0.013-0.066,0.025-0.098,0.04c-0.446,0.187-0.903,0.352-1.367,0.502
		c-0.082,0.026-0.164,0.054-0.246,0.079c-0.499,0.152-1.005,0.285-1.522,0.392c-0.045,0.009-0.089,0.015-0.134,0.023
		c-0.458,0.091-0.925,0.16-1.396,0.213c-0.132,0.015-0.264,0.029-0.395,0.042c-0.519,0.047-1.042,0.08-1.572,0.08
		s-1.053-0.032-1.571-0.08c-0.134-0.012-0.267-0.026-0.398-0.042c-0.469-0.054-0.934-0.123-1.391-0.213
		c-0.046-0.009-0.092-0.015-0.138-0.024c-0.516-0.106-1.022-0.239-1.52-0.391c-0.084-0.025-0.167-0.054-0.25-0.08
		c-0.461-0.149-0.915-0.313-1.36-0.499c-0.034-0.014-0.07-0.027-0.104-0.042c-0.501-0.214-0.99-0.449-1.465-0.707
		c-0.012-0.006-0.024-0.014-0.035-0.02c-0.451-0.246-0.888-0.514-1.313-0.799c-0.047-0.031-0.093-0.062-0.14-0.092
		c-0.839-0.573-1.622-1.222-2.346-1.929c-0.111-0.108-0.22-0.22-0.328-0.333c-0.223-0.23-0.436-0.468-0.645-0.71
		c-0.132-0.152-0.268-0.3-0.393-0.458c-0.151-0.187-0.288-0.383-0.431-0.576c-0.298-0.404-0.584-0.821-0.849-1.255
		c-0.051-0.082-0.1-0.164-0.149-0.246c-0.188-0.317-0.367-0.64-0.535-0.971c-1.187-2.338-1.871-4.973-1.871-7.77H49.68
		c0,2.783-0.678,5.406-1.855,7.734l-0.018,0.035c-0.068,0.134-0.134,0.274-0.212,0.441c-2.923,5.371-8.618,9.025-15.152,9.025
		c-9.504,0-17.237-7.732-17.237-17.236c0-9.43,7.674-17.158,17.108-17.227l6.764-0.05l0.738-6.724
		c5.805-52.898,30.867-101.752,70.566-137.563c39.993-36.075,91.707-55.942,145.615-55.942s105.623,19.867,145.615,55.942
		c39.7,35.811,64.761,84.665,70.566,137.563l0.738,6.724l6.764,0.05c9.433,0.069,17.109,7.797,17.109,17.227
		C496.793,304.749,489.061,312.48,479.557,312.48z"/>
	<rect x="248.4" y="112.125" style="fill:#491E17;" width="15.207" height="24.921"/>
	
		<rect x="282.036" y="101.038" transform="matrix(0.7071 0.7071 -0.7071 0.7071 163.0771 -176.4205)" style="fill:#491E17;" width="24.921" height="15.207"/>
	
		<rect x="209.895" y="96.191" transform="matrix(0.7071 0.7071 -0.7071 0.7071 140.5312 -121.9715)" style="fill:#491E17;" width="15.207" height="24.919"/>
</g>
</svg>